<svg width="144" height="58" viewBox="0 0 144 58" fill="none" xmlns="http://www.w3.org/2000/svg">
<g clip-path="url(#clip0_149_6180)">
<rect y="0.5" width="144" height="57.5" rx="28.75" fill="url(#paint0_linear_149_6180)"/>
<g filter="url(#filter0_d_149_6180)">
<path d="M124.504 13.636C125.187 15.428 125.528 17.5187 125.528 19.908V39.428C125.528 41.732 124.952 43.7587 123.8 45.508C122.648 47.2573 121.027 48.6227 118.936 49.604C116.888 50.5427 114.52 51.012 111.832 51.012C109.229 51.012 106.904 50.5427 104.856 49.604C102.851 48.6653 101.272 47.3427 100.12 45.636C99.0107 43.9293 98.456 41.9667 98.456 39.748V38.34C98.456 38.1267 98.52 37.956 98.648 37.828C98.8187 37.6573 99.0107 37.572 99.224 37.572H105.112C105.325 37.572 105.496 37.6573 105.624 37.828C105.795 37.956 105.88 38.1267 105.88 38.34V38.788C105.88 40.4947 106.435 41.9027 107.544 43.012C108.653 44.0787 110.083 44.612 111.832 44.612C113.667 44.612 115.16 44.0573 116.312 42.948C117.507 41.796 118.104 40.324 118.104 38.532V31.492C118.104 31.364 118.061 31.2787 117.976 31.236C117.891 31.1933 117.805 31.2147 117.72 31.3C115.885 33.092 113.389 33.988 110.232 33.988C107.715 33.988 105.496 33.4547 103.576 32.388C101.699 31.3213 100.227 29.7853 99.16 27.78C97.9653 25.6467 97.368 23.0013 97.368 19.844C97.368 17.2413 97.7947 14.9587 98.648 12.996C99.672 10.564 101.293 8.66533 103.512 7.3C105.731 5.93467 108.355 5.252 111.384 5.252C114.584 5.252 117.315 5.99866 119.576 7.492C121.88 8.94267 123.523 10.9907 124.504 13.636ZM117.08 24.516C117.763 23.1507 118.104 21.4867 118.104 19.524C118.104 17.9027 117.827 16.4733 117.272 15.236C116.248 12.8893 114.328 11.716 111.512 11.716C108.781 11.716 106.861 12.868 105.752 15.172C105.112 16.58 104.792 18.0947 104.792 19.716C104.792 21.636 105.176 23.2787 105.944 24.644C107.139 26.692 108.973 27.716 111.448 27.716C114.093 27.716 115.971 26.6493 117.08 24.516Z" fill="white" fill-opacity="0.1" shape-rendering="crispEdges"/>
<path d="M124.504 13.636L123.566 13.9838L123.57 13.992L124.504 13.636ZM118.936 49.604L119.353 50.5131L119.361 50.5092L118.936 49.604ZM104.856 49.604L104.432 50.5097L104.439 50.5131L104.856 49.604ZM100.12 45.636L99.2816 46.181L99.2863 46.1883L99.2912 46.1955L100.12 45.636ZM98.648 37.828L97.9409 37.1209H97.9409L98.648 37.828ZM105.624 37.828L104.824 38.428L104.91 38.5423L105.024 38.628L105.624 37.828ZM107.544 43.012L106.837 43.7191L106.844 43.726L106.851 43.7328L107.544 43.012ZM116.312 42.948L117.006 43.6683L117.006 43.6678L116.312 42.948ZM117.976 31.236L118.423 30.3416L118.423 30.3416L117.976 31.236ZM117.72 31.3L118.419 32.0154L118.427 32.0071L117.72 31.3ZM103.576 32.388L103.082 33.2575L103.09 33.2622L103.576 32.388ZM99.16 27.78L100.043 27.3104L100.038 27.3008L100.033 27.2914L99.16 27.78ZM98.648 12.996L99.5651 13.3948L99.5696 13.3841L98.648 12.996ZM119.576 7.492L119.025 8.32646L119.034 8.33245L119.043 8.33823L119.576 7.492ZM117.08 24.516L117.967 24.9774L117.971 24.9703L117.974 24.9632L117.08 24.516ZM117.272 15.236L116.355 15.636L116.359 15.6451L117.272 15.236ZM105.752 15.172L104.851 14.7382L104.846 14.7481L104.842 14.7582L105.752 15.172ZM105.944 24.644L105.072 25.1343L105.076 25.1411L105.08 25.1479L105.944 24.644ZM123.57 13.992C124.2 15.6462 124.528 17.6115 124.528 19.908H126.528C126.528 17.4258 126.174 15.2098 125.438 13.28L123.57 13.992ZM124.528 19.908V39.428H126.528V19.908H124.528ZM124.528 39.428C124.528 41.5568 123.999 43.3881 122.965 44.958L124.635 46.058C125.905 44.1292 126.528 41.9072 126.528 39.428H124.528ZM122.965 44.958C121.924 46.5378 120.453 47.7875 118.511 48.6988L119.361 50.5092C121.601 49.4579 123.372 47.9768 124.635 46.058L122.965 44.958ZM118.519 48.6949C116.625 49.5632 114.404 50.012 111.832 50.012V52.012C114.636 52.012 117.151 51.5221 119.353 50.5131L118.519 48.6949ZM111.832 50.012C109.351 50.012 107.171 49.5651 105.273 48.6949L104.439 50.5131C106.637 51.5203 109.108 52.012 111.832 52.012V50.012ZM105.28 48.6983C103.426 47.8303 101.992 46.622 100.949 45.0765L99.2912 46.1955C100.552 48.0633 102.276 49.5003 104.432 50.5097L105.28 48.6983ZM100.958 45.091C99.964 43.5611 99.456 41.7913 99.456 39.748H97.456C97.456 42.142 98.0573 44.2976 99.2816 46.181L100.958 45.091ZM99.456 39.748V38.34H97.456V39.748H99.456ZM99.456 38.34C99.456 38.3332 99.4569 38.3588 99.4403 38.4031C99.4226 38.4505 99.3928 38.4974 99.3551 38.5351L97.9409 37.1209C97.5922 37.4696 97.456 37.9124 97.456 38.34H99.456ZM99.3551 38.5351C99.3664 38.5238 99.3577 38.5358 99.3261 38.5498C99.2923 38.5649 99.255 38.572 99.224 38.572V36.572C98.7098 36.572 98.2722 36.7895 97.9409 37.1209L99.3551 38.5351ZM99.224 38.572H105.112V36.572H99.224V38.572ZM105.112 38.572C105.082 38.572 105.022 38.565 104.953 38.5304C104.884 38.4958 104.842 38.452 104.824 38.428L106.424 37.228C106.107 36.8055 105.64 36.572 105.112 36.572V38.572ZM105.024 38.628C105 38.61 104.956 38.5684 104.922 38.4992C104.887 38.43 104.88 38.3701 104.88 38.34H106.88C106.88 37.8119 106.646 37.3449 106.224 37.028L105.024 38.628ZM104.88 38.34V38.788H106.88V38.34H104.88ZM104.88 38.788C104.88 40.7342 105.523 42.4048 106.837 43.7191L108.251 42.3049C107.347 41.4005 106.88 40.2551 106.88 38.788H104.88ZM106.851 43.7328C108.172 45.0035 109.862 45.612 111.832 45.612V43.612C110.303 43.612 109.134 43.1539 108.237 42.2912L106.851 43.7328ZM111.832 45.612C113.884 45.612 115.64 44.9837 117.006 43.6683L115.618 42.2277C114.68 43.131 113.449 43.612 111.832 43.612V45.612ZM117.006 43.6678C118.413 42.3113 119.104 40.5715 119.104 38.532H117.104C117.104 40.0765 116.6 41.2807 115.618 42.2282L117.006 43.6678ZM119.104 38.532V31.492H117.104V38.532H119.104ZM119.104 31.492C119.104 31.1362 118.964 30.612 118.423 30.3416L117.529 32.1304C117.378 32.055 117.253 31.9301 117.178 31.7792C117.11 31.6439 117.104 31.5326 117.104 31.492H119.104ZM118.423 30.3416C118.187 30.2232 117.9 30.1762 117.605 30.2499C117.333 30.3179 117.138 30.4678 117.013 30.5929L118.427 32.0071C118.387 32.0468 118.277 32.1434 118.091 32.1901C117.881 32.2424 117.68 32.2061 117.529 32.1304L118.423 30.3416ZM117.021 30.5846C115.415 32.1539 113.192 32.988 110.232 32.988V34.988C113.587 34.988 116.356 34.0301 118.419 32.0154L117.021 30.5846ZM110.232 32.988C107.859 32.988 105.813 32.4866 104.062 31.5138L103.09 33.2622C105.179 34.4228 107.57 34.988 110.232 34.988V32.988ZM104.07 31.5185C102.366 30.5506 101.025 29.1574 100.043 27.3104L98.2771 28.2496C99.428 30.4133 101.031 32.0921 103.082 33.2575L104.07 31.5185ZM100.033 27.2914C98.9423 25.3447 98.368 22.8788 98.368 19.844H96.368C96.368 23.1238 96.9883 25.9487 98.2875 28.2686L100.033 27.2914ZM98.368 19.844C98.368 17.3496 98.7769 15.2075 99.5651 13.3947L97.7309 12.5973C96.8124 14.7098 96.368 17.1331 96.368 19.844H98.368ZM99.5696 13.3841C100.514 11.1416 101.997 9.40619 104.036 8.15166L102.988 6.44834C100.589 7.92448 98.8302 9.9864 97.7264 12.6079L99.5696 13.3841ZM104.036 8.15166C106.073 6.8982 108.509 6.252 111.384 6.252V4.252C108.2 4.252 105.388 4.97113 102.988 6.44834L104.036 8.15166ZM111.384 6.252C114.424 6.252 116.955 6.95942 119.025 8.32646L120.127 6.65753C117.674 5.03791 114.744 4.252 111.384 4.252V6.252ZM119.043 8.33823C121.154 9.66727 122.659 11.5365 123.566 13.9838L125.442 13.2882C124.387 10.4448 122.606 8.21806 120.109 6.64576L119.043 8.33823ZM117.974 24.9632C118.743 23.4251 119.104 21.599 119.104 19.524H117.104C117.104 21.3744 116.782 22.8762 116.186 24.0688L117.974 24.9632ZM119.104 19.524C119.104 17.7888 118.807 16.2156 118.185 14.8269L116.359 15.6451C116.846 16.7311 117.104 18.0165 117.104 19.524H119.104ZM118.189 14.8361C117.606 13.5015 116.744 12.4507 115.585 11.7427C114.433 11.0387 113.058 10.716 111.512 10.716V12.716C112.782 12.716 113.775 12.98 114.543 13.4493C115.304 13.9146 115.914 14.6238 116.355 15.6359L118.189 14.8361ZM111.512 10.716C110.005 10.716 108.656 11.0347 107.51 11.7225C106.359 12.4127 105.478 13.436 104.851 14.7382L106.653 15.6058C107.135 14.604 107.769 13.8993 108.538 13.4375C109.312 12.9733 110.288 12.716 111.512 12.716V10.716ZM104.842 14.7582C104.14 16.3024 103.792 17.959 103.792 19.716H105.792C105.792 18.2304 106.084 16.8576 106.662 15.5858L104.842 14.7582ZM103.792 19.716C103.792 21.7693 104.203 23.589 105.072 25.1343L106.816 24.1537C106.149 22.9684 105.792 21.5027 105.792 19.716H103.792ZM105.08 25.1479C106.464 27.5192 108.637 28.716 111.448 28.716V26.716C109.31 26.716 107.814 25.8648 106.808 24.1401L105.08 25.1479ZM111.448 28.716C112.905 28.716 114.214 28.4216 115.334 27.7855C116.459 27.1462 117.334 26.195 117.967 24.9774L116.193 24.0546C115.717 24.9703 115.098 25.6191 114.346 26.0465C113.588 26.477 112.636 26.716 111.448 26.716V28.716Z" fill="url(#paint1_linear_149_6180)" fill-opacity="0.45"/>
</g>
</g>
<defs>
<filter id="filter0_d_149_6180" x="93.3679" y="5.25195" width="36.1602" height="53.76" filterUnits="userSpaceOnUse" color-interpolation-filters="sRGB">
<feFlood flood-opacity="0" result="BackgroundImageFix"/>
<feColorMatrix in="SourceAlpha" type="matrix" values="0 0 0 0 0 0 0 0 0 0 0 0 0 0 0 0 0 0 127 0" result="hardAlpha"/>
<feOffset dy="4"/>
<feGaussianBlur stdDeviation="2"/>
<feComposite in2="hardAlpha" operator="out"/>
<feColorMatrix type="matrix" values="0 0 0 0 0 0 0 0 0 0 0 0 0 0 0 0 0 0 0.1 0"/>
<feBlend mode="normal" in2="BackgroundImageFix" result="effect1_dropShadow_149_6180"/>
<feBlend mode="normal" in="SourceGraphic" in2="effect1_dropShadow_149_6180" result="shape"/>
</filter>
<linearGradient id="paint0_linear_149_6180" x1="72" y1="0.5" x2="72" y2="58" gradientUnits="userSpaceOnUse">
<stop stop-color="#97C7FF"/>
<stop offset="1" stop-color="#2D8EFF"/>
</linearGradient>
<linearGradient id="paint1_linear_149_6180" x1="109.5" y1="3" x2="109.5" y2="54" gradientUnits="userSpaceOnUse">
<stop stop-color="white"/>
<stop offset="0.0001" stop-color="white"/>
<stop offset="1" stop-color="white" stop-opacity="0"/>
</linearGradient>
<clipPath id="clip0_149_6180">
<rect y="0.5" width="144" height="57.5" rx="28.75" fill="white"/>
</clipPath>
</defs>
</svg>
