<svg width="144" height="58" viewBox="0 0 144 58" fill="none" xmlns="http://www.w3.org/2000/svg">
<g clip-path="url(#clip0_149_6169)">
<rect width="144" height="57.5" rx="28.75" fill="url(#paint0_linear_149_6169)"/>
<g filter="url(#filter0_d_149_6169)">
<path d="M124.632 27.92C122.456 23.952 118.552 21.712 113.496 21.712C110.808 21.712 108.248 22.288 106.136 24.272C105.88 24.464 105.688 24.4 105.688 24.08V17.168C105.688 13.52 108.312 11.088 111.896 11.088C115.416 11.088 117.912 13.52 117.912 16.912V17.488C117.912 17.872 118.296 18.128 118.936 18.128H124.312C124.952 18.128 125.336 17.744 125.336 17.104V15.952C125.336 9.232 119.896 4.688 111.96 4.688C103.832 4.688 98.264 9.232 98.264 16.272V35.792C98.264 38.096 98.584 40.208 99.288 42.064C101.208 47.312 105.944 50.448 112.344 50.448C118.552 50.448 123.032 47.568 125.08 42.704C125.912 40.784 126.36 38.48 126.36 35.856C126.36 32.848 125.784 30.096 124.632 27.92ZM117.976 40.528C116.952 42.64 115.096 43.984 112.28 43.984C109.464 43.984 107.544 42.768 106.52 40.464C105.944 39.312 105.688 37.776 105.688 36.176C105.688 34.448 105.944 32.592 106.648 31.184C107.736 29.072 109.592 27.984 112.28 27.984C114.904 27.984 116.696 29.072 117.848 31.056C118.552 32.4 118.936 34.128 118.936 35.984C118.936 37.712 118.616 39.248 117.976 40.528Z" fill="white" fill-opacity="0.1" shape-rendering="crispEdges"/>
<path d="M124.632 27.92L125.516 27.4521L125.512 27.4456L125.509 27.4392L124.632 27.92ZM106.136 24.272L106.736 25.072L106.78 25.0388L106.821 25.0008L106.136 24.272ZM99.288 42.064L100.227 41.7204L100.223 41.7093L99.288 42.064ZM125.08 42.704L124.162 42.3064L124.158 42.3159L125.08 42.704ZM117.976 40.528L117.082 40.0808L117.076 40.0917L117.976 40.528ZM106.52 40.464L107.434 40.0579L107.425 40.0371L107.414 40.0168L106.52 40.464ZM106.648 31.184L105.759 30.726L105.754 30.7368L106.648 31.184ZM117.848 31.056L118.734 30.592L118.724 30.5727L118.713 30.5539L117.848 31.056ZM125.509 27.4392C123.141 23.1206 118.881 20.712 113.496 20.712V22.712C118.223 22.712 121.771 24.7834 123.755 28.4008L125.509 27.4392ZM113.496 20.712C110.664 20.712 107.816 21.3216 105.451 23.5432L106.821 25.0008C108.68 23.2544 110.952 22.712 113.496 22.712V20.712ZM105.536 23.472C105.538 23.4705 105.549 23.4623 105.57 23.4513C105.59 23.4405 105.625 23.4238 105.674 23.4092C105.769 23.3811 105.962 23.3494 106.187 23.4395C106.427 23.5354 106.566 23.7142 106.631 23.8553C106.688 23.9802 106.688 24.0711 106.688 24.08H104.688C104.688 24.3514 104.769 25.0262 105.445 25.2965C106.039 25.5343 106.546 25.2143 106.736 25.072L105.536 23.472ZM106.688 24.08V17.168H104.688V24.08H106.688ZM106.688 17.168C106.688 15.5936 107.249 14.3408 108.142 13.48C109.039 12.6154 110.333 12.088 111.896 12.088V10.088C109.875 10.088 108.065 10.7766 106.754 12.04C105.439 13.3072 104.688 15.0944 104.688 17.168H106.688ZM111.896 12.088C114.893 12.088 116.912 14.1008 116.912 16.912H118.912C118.912 12.9391 115.939 10.088 111.896 10.088V12.088ZM116.912 16.912V17.488H118.912V16.912H116.912ZM116.912 17.488C116.912 18.0674 117.223 18.526 117.647 18.7957C118.037 19.0436 118.501 19.128 118.936 19.128V17.128C118.841 17.128 118.776 17.1184 118.738 17.1092C118.698 17.0998 118.698 17.0937 118.721 17.1083C118.746 17.1241 118.798 17.1648 118.843 17.242C118.891 17.3227 118.912 17.411 118.912 17.488H116.912ZM118.936 19.128H124.312V17.128H118.936V19.128ZM124.312 19.128C124.833 19.128 125.366 18.9679 125.771 18.5631C126.176 18.1583 126.336 17.6245 126.336 17.104H124.336C124.336 17.1648 124.327 17.1905 124.327 17.1911C124.327 17.1912 124.328 17.186 124.334 17.1775C124.339 17.1688 124.347 17.1588 124.357 17.1489C124.367 17.139 124.377 17.1313 124.385 17.1259C124.394 17.1205 124.399 17.1186 124.399 17.1186C124.399 17.1188 124.373 17.128 124.312 17.128V19.128ZM126.336 17.104V15.952H124.336V17.104H126.336ZM126.336 15.952C126.336 12.3009 124.849 9.20307 122.267 7.03435C119.7 4.87763 116.113 3.688 111.96 3.688V5.688C115.743 5.688 118.844 6.77037 120.981 8.56565C123.103 10.3489 124.336 12.8831 124.336 15.952H126.336ZM111.96 3.688C107.717 3.688 104.048 4.87454 101.422 7.07324C98.7791 9.28592 97.264 12.4666 97.264 16.272H99.264C99.264 13.0374 100.533 10.4261 102.706 8.60676C104.896 6.77346 108.075 5.688 111.96 5.688V3.688ZM97.264 16.272V35.792H99.264V16.272H97.264ZM97.264 35.792C97.264 38.1851 97.5959 40.4228 98.353 42.4187L100.223 41.7093C99.5721 39.9932 99.264 38.0069 99.264 35.792H97.264ZM98.3489 42.4076C100.432 48.1026 105.583 51.448 112.344 51.448V49.448C106.305 49.448 101.984 46.5214 100.227 41.7204L98.3489 42.4076ZM112.344 51.448C118.9 51.448 123.777 48.3747 126.002 43.0921L124.158 42.3159C122.287 46.7613 118.204 49.448 112.344 49.448V51.448ZM125.998 43.1016C126.893 41.0348 127.36 38.5914 127.36 35.856H125.36C125.36 38.3686 124.931 40.5332 124.162 42.3064L125.998 43.1016ZM127.36 35.856C127.36 32.7303 126.763 29.8077 125.516 27.4521L123.748 28.3879C124.805 30.3843 125.36 32.9657 125.36 35.856H127.36ZM117.076 40.0917C116.215 41.8682 114.703 42.984 112.28 42.984V44.984C115.489 44.984 117.689 43.4118 118.876 40.9643L117.076 40.0917ZM112.28 42.984C111.016 42.984 110.024 42.7121 109.253 42.2368C108.487 41.7644 107.875 41.0513 107.434 40.0579L105.606 40.8701C106.189 42.1807 107.049 43.2276 108.203 43.9392C109.352 44.6479 110.728 44.984 112.28 44.984V42.984ZM107.414 40.0168C106.934 39.0556 106.688 37.6918 106.688 36.176H104.688C104.688 37.8602 104.954 39.5684 105.626 40.9112L107.414 40.0168ZM106.688 36.176C106.688 34.5173 106.938 32.8398 107.542 31.6312L105.754 30.7368C104.95 32.3442 104.688 34.3787 104.688 36.176H106.688ZM107.537 31.642C108.004 30.7361 108.612 30.0886 109.361 29.6598C110.115 29.228 111.071 28.984 112.28 28.984V26.984C110.801 26.984 109.485 27.284 108.367 27.9242C107.244 28.5674 106.38 29.5199 105.759 30.726L107.537 31.642ZM112.28 28.984C113.451 28.984 114.379 29.2257 115.124 29.6466C115.867 30.0665 116.483 30.6963 116.983 31.5581L118.713 30.5539C118.061 29.4317 117.205 28.5255 116.108 27.9054C115.013 27.2863 113.733 26.984 112.28 26.984V28.984ZM116.962 31.52C117.577 32.6935 117.936 34.2557 117.936 35.984H119.936C119.936 34.0003 119.527 32.1065 118.734 30.592L116.962 31.52ZM117.936 35.984C117.936 37.5918 117.638 38.9679 117.082 40.0808L118.87 40.9752C119.594 39.5281 119.936 37.8322 119.936 35.984H117.936Z" fill="url(#paint1_linear_149_6169)" fill-opacity="0.45"/>
</g>
</g>
<defs>
<filter id="filter0_d_149_6169" x="94.2639" y="4.68799" width="36.0962" height="53.76" filterUnits="userSpaceOnUse" color-interpolation-filters="sRGB">
<feFlood flood-opacity="0" result="BackgroundImageFix"/>
<feColorMatrix in="SourceAlpha" type="matrix" values="0 0 0 0 0 0 0 0 0 0 0 0 0 0 0 0 0 0 127 0" result="hardAlpha"/>
<feOffset dy="4"/>
<feGaussianBlur stdDeviation="2"/>
<feComposite in2="hardAlpha" operator="out"/>
<feColorMatrix type="matrix" values="0 0 0 0 0 0 0 0 0 0 0 0 0 0 0 0 0 0 0.1 0"/>
<feBlend mode="normal" in2="BackgroundImageFix" result="effect1_dropShadow_149_6169"/>
<feBlend mode="normal" in="SourceGraphic" in2="effect1_dropShadow_149_6169" result="shape"/>
</filter>
<linearGradient id="paint0_linear_149_6169" x1="72" y1="0" x2="72" y2="57.5" gradientUnits="userSpaceOnUse">
<stop stop-color="#CCB6FF"/>
<stop offset="1" stop-color="#9769FF"/>
</linearGradient>
<linearGradient id="paint1_linear_149_6169" x1="109.5" y1="2.5" x2="109.5" y2="53.5" gradientUnits="userSpaceOnUse">
<stop stop-color="white"/>
<stop offset="0.0001" stop-color="white"/>
<stop offset="1" stop-color="white" stop-opacity="0"/>
</linearGradient>
<clipPath id="clip0_149_6169">
<rect width="144" height="57.5" rx="28.75" fill="white"/>
</clipPath>
</defs>
</svg>
