<svg width="144" height="58" viewBox="0 0 144 58" fill="none" xmlns="http://www.w3.org/2000/svg">
<g clip-path="url(#clip0_149_6185)">
<rect y="0.5" width="144" height="57.5" rx="28.75" fill="url(#paint0_linear_149_6185)"/>
<g filter="url(#filter0_d_149_6185)">
<path d="M126.76 31.108C127.699 32.9853 128.168 35.14 128.168 37.572C128.168 40.132 127.613 42.4573 126.504 44.548C125.395 46.5533 123.773 48.132 121.64 49.284C119.507 50.436 116.989 51.012 114.088 51.012C111.229 51.012 108.691 50.4573 106.472 49.348C104.253 48.196 102.589 46.532 101.48 44.356C100.371 42.3507 99.816 40.068 99.816 37.508C99.816 35.204 100.307 33.028 101.288 30.98C102.141 29.2307 103.357 27.908 104.936 27.012C105.149 26.884 105.171 26.7347 105 26.564C103.933 25.796 102.973 24.7293 102.12 23.364C101.011 21.572 100.456 19.588 100.456 17.412C100.456 14.724 101.245 12.3133 102.824 10.18C103.976 8.516 105.533 7.236 107.496 6.34C109.459 5.40133 111.656 4.932 114.088 4.932C116.605 4.932 118.803 5.40133 120.68 6.34C122.6 7.236 124.136 8.516 125.288 10.18C126.781 12.356 127.528 14.7667 127.528 17.412C127.528 19.7587 126.952 21.8067 125.8 23.556C124.989 24.7507 124.051 25.732 122.984 26.5C122.813 26.6707 122.813 26.82 122.984 26.948C124.605 27.8867 125.864 29.2733 126.76 31.108ZM108.584 14.596C108.072 15.7053 107.816 16.6867 107.816 17.54C107.816 18.9907 108.179 20.292 108.904 21.444C109.928 23.1933 111.635 24.068 114.024 24.068C116.328 24.068 118.077 23.172 119.272 21.38C119.912 20.4413 120.232 19.14 120.232 17.476C120.232 16.5373 119.997 15.556 119.528 14.532C118.973 13.5507 118.227 12.7827 117.288 12.228C116.349 11.6307 115.24 11.332 113.96 11.332C112.765 11.332 111.699 11.6307 110.76 12.228C109.821 12.7827 109.096 13.572 108.584 14.596ZM119.336 41.988C120.232 40.7507 120.68 39.0653 120.68 36.932C120.68 34.9693 120.339 33.4333 119.656 32.324C118.589 30.3613 116.712 29.38 114.024 29.38C111.507 29.38 109.672 30.3187 108.52 32.196C107.795 33.348 107.432 34.948 107.432 36.996C107.432 38.9587 107.816 40.5587 108.584 41.796C109.736 43.6733 111.571 44.612 114.088 44.612C116.477 44.612 118.227 43.7373 119.336 41.988Z" fill="white" fill-opacity="0.1" shape-rendering="crispEdges"/>
<path d="M126.76 31.108L125.861 31.5469L125.866 31.5552L126.76 31.108ZM126.504 44.548L127.379 45.0321L127.383 45.0244L127.387 45.0167L126.504 44.548ZM121.64 49.284L122.115 50.1639L121.64 49.284ZM106.472 49.348L106.011 50.2355L106.018 50.239L106.025 50.2424L106.472 49.348ZM101.48 44.356L102.371 43.9018L102.363 43.8867L102.355 43.8719L101.48 44.356ZM101.288 30.98L100.389 30.5416L100.386 30.5479L101.288 30.98ZM104.936 27.012L105.43 27.8817L105.44 27.8757L105.45 27.8695L104.936 27.012ZM105 26.564L105.707 25.8569L105.65 25.7997L105.584 25.7525L105 26.564ZM102.12 23.364L101.27 23.8904L101.272 23.894L102.12 23.364ZM102.824 10.18L103.628 10.7748L103.637 10.7622L103.646 10.7492L102.824 10.18ZM107.496 6.34L107.911 7.24968L107.919 7.24598L107.927 7.24213L107.496 6.34ZM120.68 6.34L120.233 7.23442L120.245 7.24047L120.257 7.24618L120.68 6.34ZM125.288 10.18L126.113 9.61415L126.11 9.61079L125.288 10.18ZM125.8 23.556L126.628 24.1176L126.635 24.106L125.8 23.556ZM122.984 26.5L122.4 25.6885L122.334 25.7357L122.277 25.7929L122.984 26.5ZM122.984 26.948L122.384 27.748L122.432 27.7837L122.483 27.8134L122.984 26.948ZM108.584 14.596L107.69 14.1488L107.683 14.1628L107.676 14.1769L108.584 14.596ZM108.904 21.444L109.767 20.9388L109.759 20.9249L109.75 20.9112L108.904 21.444ZM119.272 21.38L118.446 20.8166L118.44 20.8253L119.272 21.38ZM119.528 14.532L120.437 14.1153L120.419 14.0768L120.399 14.0399L119.528 14.532ZM117.288 12.228L116.751 13.0717L116.765 13.0805L116.779 13.0889L117.288 12.228ZM110.76 12.228L111.269 13.0889L111.283 13.0805L111.297 13.0717L110.76 12.228ZM119.336 41.988L118.526 41.4015L118.508 41.4264L118.491 41.4525L119.336 41.988ZM119.656 32.324L118.777 32.8015L118.79 32.8252L118.804 32.8481L119.656 32.324ZM108.52 32.196L109.366 32.7288L109.372 32.719L108.52 32.196ZM108.584 41.796L109.436 41.273L109.434 41.2686L108.584 41.796ZM125.866 31.5552C126.725 33.2732 127.168 35.2706 127.168 37.572H129.168C129.168 35.0094 128.673 32.6975 127.654 30.6608L125.866 31.5552ZM127.168 37.572C127.168 39.9823 126.647 42.1446 125.621 44.0793L127.387 45.0167C128.579 42.7701 129.168 40.2817 129.168 37.572H127.168ZM125.629 44.0639C124.618 45.8919 123.14 47.3375 121.165 48.4041L122.115 50.1639C124.407 48.9265 126.172 47.2148 127.379 45.0321L125.629 44.0639ZM121.165 48.4041C119.204 49.4632 116.856 50.012 114.088 50.012V52.012C117.123 52.012 119.81 51.4089 122.115 50.1639L121.165 48.4041ZM114.088 50.012C111.361 50.012 108.979 49.4836 106.919 48.4536L106.025 50.2424C108.402 51.4311 111.098 52.012 114.088 52.012V50.012ZM106.933 48.4605C104.895 47.4022 103.383 45.8875 102.371 43.9018L100.589 44.8102C101.795 47.1765 103.612 48.9898 106.011 50.2355L106.933 48.4605ZM102.355 43.8719C101.337 42.0315 100.816 39.9189 100.816 37.508H98.816C98.816 40.2171 99.4044 42.6698 100.605 44.8401L102.355 43.8719ZM100.816 37.508C100.816 35.3513 101.274 33.3232 102.19 31.4121L100.386 30.5479C99.3393 32.7328 98.816 35.0567 98.816 37.508H100.816ZM102.187 31.4184C102.958 29.8366 104.039 28.6708 105.43 27.8817L104.442 26.1423C102.675 27.1452 101.324 28.6247 100.389 30.5416L102.187 31.4184ZM105.45 27.8695C105.651 27.7493 106.027 27.4669 106.102 26.9454C106.179 26.4095 105.88 26.0301 105.707 25.8569L104.293 27.2711C104.29 27.2686 104.067 27.0492 104.122 26.6626C104.148 26.4789 104.229 26.3454 104.297 26.2661C104.359 26.1925 104.413 26.1596 104.422 26.1545L105.45 27.8695ZM105.584 25.7525C104.644 25.0753 103.768 24.1133 102.968 22.834L101.272 23.894C102.179 25.3453 103.223 26.5167 104.416 27.3755L105.584 25.7525ZM102.97 22.8376C101.962 21.2091 101.456 19.4084 101.456 17.412H99.456C99.456 19.7676 100.059 21.9349 101.27 23.8904L102.97 22.8376ZM101.456 17.412C101.456 14.9352 102.178 12.7336 103.628 10.7748L102.02 9.58515C100.312 11.893 99.456 14.5128 99.456 17.412H101.456ZM103.646 10.7492C104.689 9.24311 106.101 8.07603 107.911 7.24968L107.081 5.43031C104.965 6.39596 103.263 7.78889 102.002 9.61079L103.646 10.7492ZM107.927 7.24213C109.74 6.37513 111.788 5.932 114.088 5.932V3.932C111.524 3.932 109.177 4.42753 107.065 5.43786L107.927 7.24213ZM114.088 5.932C116.481 5.932 118.519 6.3777 120.233 7.23442L121.127 5.44557C119.086 4.42496 116.73 3.932 114.088 3.932V5.932ZM120.257 7.24618C122.024 8.07089 123.42 9.2379 124.466 10.7492L126.11 9.61079C124.852 7.7941 123.176 6.4011 121.103 5.43381L120.257 7.24618ZM124.463 10.7458C125.842 12.7549 126.528 14.9682 126.528 17.412H128.528C128.528 14.5652 127.72 11.9571 126.113 9.61415L124.463 10.7458ZM126.528 17.412C126.528 19.5875 125.997 21.4392 124.965 23.006L126.635 24.106C127.907 22.1742 128.528 19.9298 128.528 17.412H126.528ZM124.973 22.9945C124.221 24.1017 123.362 24.9953 122.4 25.6885L123.568 27.3115C124.739 26.4687 125.757 25.3996 126.627 24.1175L124.973 22.9945ZM122.277 25.7929C122.115 25.955 121.856 26.2764 121.856 26.74C121.856 27.2489 122.161 27.5807 122.384 27.748L123.584 26.148C123.636 26.1873 123.856 26.3804 123.856 26.74C123.856 26.8984 123.81 27.0205 123.77 27.0946C123.733 27.165 123.697 27.2016 123.691 27.2071L122.277 25.7929ZM122.483 27.8134C123.917 28.6436 125.044 29.8739 125.861 31.5468L127.659 30.6692C126.684 28.6727 125.294 27.1297 123.485 26.0826L122.483 27.8134ZM107.676 14.1769C107.128 15.3651 106.816 16.4935 106.816 17.54H108.816C108.816 16.8798 109.016 16.0456 109.492 15.0151L107.676 14.1769ZM106.816 17.54C106.816 19.1663 107.225 20.6547 108.058 21.9768L109.75 20.9112C109.132 19.9293 108.816 18.815 108.816 17.54H106.816ZM108.041 21.9492C109.279 24.0648 111.355 25.068 114.024 25.068V23.068C111.915 23.068 110.577 22.3219 109.767 20.9388L108.041 21.9492ZM114.024 25.068C116.635 25.068 118.709 24.0272 120.104 21.9347L118.44 20.8253C117.446 22.3168 116.021 23.068 114.024 23.068V25.068ZM120.098 21.9433C120.893 20.778 121.232 19.2523 121.232 17.476H119.232C119.232 19.0277 118.931 20.1047 118.446 20.8167L120.098 21.9433ZM121.232 17.476C121.232 16.3677 120.955 15.2443 120.437 14.1153L118.619 14.9487C119.04 15.8677 119.232 16.707 119.232 17.476H121.232ZM120.399 14.0399C119.761 12.9115 118.891 12.014 117.797 11.3671L116.779 13.0889C117.562 13.5514 118.186 14.1899 118.657 15.0241L120.399 14.0399ZM117.825 11.3843C116.703 10.6702 115.401 10.332 113.96 10.332V12.332C115.079 12.332 115.996 12.5911 116.751 13.0717L117.825 11.3843ZM113.96 10.332C112.59 10.332 111.334 10.6773 110.223 11.3843L111.297 13.0717C112.063 12.584 112.941 12.332 113.96 12.332V10.332ZM110.251 11.3671C109.138 12.0247 108.283 12.9617 107.69 14.1488L109.478 15.0432C109.909 14.1823 110.504 13.5406 111.269 13.0889L110.251 11.3671ZM120.146 42.5745C121.206 41.1108 121.68 39.1947 121.68 36.932H119.68C119.68 38.9359 119.258 40.3905 118.526 41.4015L120.146 42.5745ZM121.68 36.932C121.68 34.8714 121.325 33.1275 120.508 31.7999L118.804 32.8481C119.353 33.7392 119.68 35.0672 119.68 36.932H121.68ZM120.535 31.8465C119.254 29.4906 116.99 28.38 114.024 28.38V30.38C116.434 30.38 117.924 31.2321 118.777 32.8015L120.535 31.8465ZM114.024 28.38C111.218 28.38 109.03 29.4523 107.668 31.673L109.372 32.719C110.314 31.185 111.796 30.38 114.024 30.38V28.38ZM107.674 31.6632C106.809 33.036 106.432 34.8481 106.432 36.996H108.432C108.432 35.0479 108.78 33.66 109.366 32.7288L107.674 31.6632ZM106.432 36.996C106.432 39.0822 106.84 40.8817 107.734 42.3234L109.434 41.2686C108.792 40.2357 108.432 38.8351 108.432 36.996H106.432ZM107.732 42.319C109.094 44.5397 111.282 45.612 114.088 45.612V43.612C111.86 43.612 110.378 42.807 109.436 41.273L107.732 42.319ZM114.088 45.612C116.758 45.612 118.857 44.6106 120.181 42.5235L118.491 41.4525C117.596 42.864 116.197 43.612 114.088 43.612V45.612Z" fill="url(#paint1_linear_149_6185)" fill-opacity="0.45"/>
</g>
</g>
<defs>
<filter id="filter0_d_149_6185" x="95.8159" y="4.93201" width="36.3521" height="54.08" filterUnits="userSpaceOnUse" color-interpolation-filters="sRGB">
<feFlood flood-opacity="0" result="BackgroundImageFix"/>
<feColorMatrix in="SourceAlpha" type="matrix" values="0 0 0 0 0 0 0 0 0 0 0 0 0 0 0 0 0 0 127 0" result="hardAlpha"/>
<feOffset dy="4"/>
<feGaussianBlur stdDeviation="2"/>
<feComposite in2="hardAlpha" operator="out"/>
<feColorMatrix type="matrix" values="0 0 0 0 0 0 0 0 0 0 0 0 0 0 0 0 0 0 0.1 0"/>
<feBlend mode="normal" in2="BackgroundImageFix" result="effect1_dropShadow_149_6185"/>
<feBlend mode="normal" in="SourceGraphic" in2="effect1_dropShadow_149_6185" result="shape"/>
</filter>
<linearGradient id="paint0_linear_149_6185" x1="72" y1="0.5" x2="72" y2="58" gradientUnits="userSpaceOnUse">
<stop stop-color="#1BEBB9"/>
<stop offset="1" stop-color="#1A9B65"/>
</linearGradient>
<linearGradient id="paint1_linear_149_6185" x1="111.5" y1="3" x2="111.5" y2="54" gradientUnits="userSpaceOnUse">
<stop stop-color="white"/>
<stop offset="0.0001" stop-color="white"/>
<stop offset="1" stop-color="white" stop-opacity="0"/>
</linearGradient>
<clipPath id="clip0_149_6185">
<rect y="0.5" width="144" height="57.5" rx="28.75" fill="white"/>
</clipPath>
</defs>
</svg>
