<svg width="144" height="58" viewBox="0 0 144 58" fill="none" xmlns="http://www.w3.org/2000/svg">
<g clip-path="url(#clip0_149_6174)">
<rect width="144" height="57.5" rx="28.75" fill="url(#paint0_linear_149_6174)"/>
<g filter="url(#filter0_d_149_6174)">
<path d="M106.96 52H112.72C113.296 52 113.744 51.68 113.936 51.168L127.888 14.176C128.016 13.728 128.144 13.408 128.144 12.96V8.224C128.144 7.584 127.76 7.2 127.12 7.2H100.688C100.048 7.2 99.664 7.584 99.664 8.224V16.544C99.664 17.184 100.048 17.568 100.688 17.568H104.784C105.424 17.568 105.808 17.184 105.808 16.544V13.984C105.808 13.728 106 13.6 106.192 13.6H119.824C120.08 13.6 120.144 13.792 120.08 14.048L106.128 50.848C105.872 51.616 106.192 52 106.96 52Z" fill="white" fill-opacity="0.1" shape-rendering="crispEdges"/>
<path d="M113.936 51.168L113 50.8151L113 50.8169L113.936 51.168ZM127.888 14.176L128.824 14.5289L128.838 14.4903L128.85 14.4507L127.888 14.176ZM120.08 14.048L121.015 14.4025L121.036 14.3475L121.05 14.2905L120.08 14.048ZM106.128 50.848L105.193 50.4935L105.186 50.5125L105.179 50.5318L106.128 50.848ZM106.96 53H112.72V51H106.96V53ZM112.72 53C113.712 53 114.534 52.4221 114.872 51.5191L113 50.8169C112.971 50.8943 112.933 50.9329 112.903 50.9538C112.873 50.9743 112.819 51 112.72 51V53ZM114.872 51.5209L128.824 14.5289L126.952 13.8231L113 50.8151L114.872 51.5209ZM128.85 14.4507C128.949 14.1018 129.144 13.5893 129.144 12.96H127.144C127.144 13.2266 127.083 13.3542 126.926 13.9013L128.85 14.4507ZM129.144 12.96V8.224H127.144V12.96H129.144ZM129.144 8.224C129.144 7.70349 128.984 7.1697 128.579 6.76489C128.174 6.36008 127.641 6.2 127.12 6.2V8.2C127.181 8.2 127.207 8.20916 127.207 8.20935C127.207 8.2094 127.202 8.2075 127.193 8.20214C127.185 8.1967 127.175 8.18903 127.165 8.1791C127.155 8.16918 127.147 8.15918 127.142 8.15051C127.136 8.14198 127.135 8.13681 127.135 8.13694C127.135 8.13748 127.144 8.16317 127.144 8.224H129.144ZM127.12 6.2H100.688V8.2H127.12V6.2ZM100.688 6.2C100.167 6.2 99.6337 6.36008 99.2289 6.76489C98.8241 7.1697 98.664 7.70349 98.664 8.224H100.664C100.664 8.16317 100.673 8.13748 100.673 8.13694C100.673 8.13681 100.672 8.14198 100.666 8.15052C100.661 8.15918 100.653 8.16918 100.643 8.1791C100.633 8.18903 100.623 8.1967 100.615 8.20214C100.606 8.2075 100.601 8.2094 100.601 8.20935C100.601 8.20916 100.627 8.2 100.688 8.2V6.2ZM98.664 8.224V16.544H100.664V8.224H98.664ZM98.664 16.544C98.664 17.0645 98.8241 17.5983 99.2289 18.0031C99.6337 18.4079 100.167 18.568 100.688 18.568V16.568C100.627 16.568 100.601 16.5588 100.601 16.5586C100.601 16.5586 100.606 16.5605 100.615 16.5659C100.623 16.5713 100.633 16.579 100.643 16.5889C100.653 16.5988 100.661 16.6088 100.666 16.6175C100.672 16.626 100.673 16.6312 100.673 16.6311C100.673 16.6305 100.664 16.6048 100.664 16.544H98.664ZM100.688 18.568H104.784V16.568H100.688V18.568ZM104.784 18.568C105.305 18.568 105.838 18.4079 106.243 18.0031C106.648 17.5983 106.808 17.0645 106.808 16.544H104.808C104.808 16.6048 104.799 16.6305 104.799 16.6311C104.799 16.6312 104.8 16.626 104.806 16.6175C104.811 16.6088 104.819 16.5988 104.829 16.5889C104.839 16.579 104.849 16.5713 104.857 16.5659C104.866 16.5605 104.871 16.5586 104.871 16.5586C104.871 16.5588 104.845 16.568 104.784 16.568V18.568ZM106.808 16.544V13.984H104.808V16.544H106.808ZM106.808 13.984C106.808 14.1274 106.744 14.3084 106.592 14.4434C106.459 14.5621 106.309 14.6 106.192 14.6V12.6C105.883 12.6 105.541 12.7019 105.264 12.9486C104.968 13.2116 104.808 13.5846 104.808 13.984H106.808ZM106.192 14.6H119.824V12.6H106.192V14.6ZM119.824 14.6C119.766 14.6 119.646 14.5893 119.508 14.5152C119.36 14.4357 119.246 14.3126 119.178 14.1752C119.115 14.0492 119.104 13.942 119.103 13.8885C119.103 13.8599 119.105 13.8386 119.106 13.8261C119.108 13.8134 119.11 13.8064 119.11 13.8055L121.05 14.2905C121.105 14.0714 121.164 13.6754 120.966 13.2808C120.716 12.7806 120.23 12.6 119.824 12.6V14.6ZM119.145 13.6935L105.193 50.4935L107.063 51.2025L121.015 14.4025L119.145 13.6935ZM105.179 50.5318C105.011 51.0379 104.924 51.7306 105.36 52.312C105.787 52.8811 106.461 53 106.96 53V51C106.845 51 106.802 50.9847 106.807 50.9866C106.819 50.9909 106.892 51.0218 106.96 51.112C106.992 51.1545 107.013 51.1983 107.026 51.2373C107.039 51.2752 107.041 51.3016 107.041 51.3104C107.042 51.3227 107.038 51.2797 107.077 51.1642L105.179 50.5318Z" fill="url(#paint1_linear_149_6174)" fill-opacity="0.45"/>
</g>
</g>
<defs>
<filter id="filter0_d_149_6174" x="95.6641" y="7.19995" width="36.48" height="52.8" filterUnits="userSpaceOnUse" color-interpolation-filters="sRGB">
<feFlood flood-opacity="0" result="BackgroundImageFix"/>
<feColorMatrix in="SourceAlpha" type="matrix" values="0 0 0 0 0 0 0 0 0 0 0 0 0 0 0 0 0 0 127 0" result="hardAlpha"/>
<feOffset dy="4"/>
<feGaussianBlur stdDeviation="2"/>
<feComposite in2="hardAlpha" operator="out"/>
<feColorMatrix type="matrix" values="0 0 0 0 0 0 0 0 0 0 0 0 0 0 0 0 0 0 0.1 0"/>
<feBlend mode="normal" in2="BackgroundImageFix" result="effect1_dropShadow_149_6174"/>
<feBlend mode="normal" in="SourceGraphic" in2="effect1_dropShadow_149_6174" result="shape"/>
</filter>
<linearGradient id="paint0_linear_149_6174" x1="72" y1="0" x2="72" y2="57.5" gradientUnits="userSpaceOnUse">
<stop stop-color="#FFD77F"/>
<stop offset="1" stop-color="#FF9F43"/>
</linearGradient>
<linearGradient id="paint1_linear_149_6174" x1="112.5" y1="4.5" x2="112.5" y2="55.5" gradientUnits="userSpaceOnUse">
<stop stop-color="white"/>
<stop offset="0.0001" stop-color="white"/>
<stop offset="1" stop-color="white" stop-opacity="0"/>
</linearGradient>
<clipPath id="clip0_149_6174">
<rect width="144" height="57.5" rx="28.75" fill="white"/>
</clipPath>
</defs>
</svg>
